<?xml version="1.0" encoding="UTF-8" standalone="no"?>
<!-- Generator: IcoMoon.io -->

<svg
   xmlns:dc="http://purl.org/dc/elements/1.1/"
   xmlns:cc="http://creativecommons.org/ns#"
   xmlns:rdf="http://www.w3.org/1999/02/22-rdf-syntax-ns#"
   xmlns:svg="http://www.w3.org/2000/svg"
   xmlns="http://www.w3.org/2000/svg"
   xmlns:sodipodi="http://sodipodi.sourceforge.net/DTD/sodipodi-0.dtd"
   xmlns:inkscape="http://www.inkscape.org/namespaces/inkscape"
   width="23"
   height="32"
   viewBox="0 0 23 32"
   version="1.1"
   id="svg3985"
   sodipodi:docname="icon-phone.svg"
   style="fill:#000000"
   inkscape:version="0.92.2 5c3e80d, 2017-08-06">
  <metadata
     id="metadata3991">
    <rdf:RDF>
      <cc:Work
         rdf:about="">
        <dc:format>image/svg+xml</dc:format>
        <dc:type
           rdf:resource="http://purl.org/dc/dcmitype/StillImage" />
        <dc:title></dc:title>
      </cc:Work>
    </rdf:RDF>
  </metadata>
  <defs
     id="defs3989" />
  <sodipodi:namedview
     pagecolor="#ffffff"
     bordercolor="#666666"
     borderopacity="1"
     objecttolerance="10"
     gridtolerance="10"
     guidetolerance="10"
     inkscape:pageopacity="0"
     inkscape:pageshadow="2"
     inkscape:window-width="1025"
     inkscape:window-height="628"
     id="namedview3987"
     showgrid="false"
     inkscape:zoom="7.375"
     inkscape:cx="16"
     inkscape:cy="16"
     inkscape:window-x="0"
     inkscape:window-y="23"
     inkscape:window-maximized="0"
     inkscape:current-layer="svg3985" />
  <g
     id="g3983"
     transform="matrix(0.78367025,0,0,0.78416799,-1.0389637,3.4542728)">
    <path
       d="M 13.216,8.064 C 12.834,3.67 8.25,1.514 8.056,1.426 7.874,1.34 7.67,1.314 7.474,1.348 2.182,2.226 1.386,5.306 1.354,5.434 1.31,5.614 1.318,5.8 1.374,5.974 c 6.312,19.584 19.43,23.214 23.742,24.408 0.332,0.092 0.606,0.166 0.814,0.234 0.1,0.034 0.204,0.048 0.308,0.048 0.142,0 0.284,-0.03 0.414,-0.09 0.132,-0.06 3.248,-1.528 4.01,-6.316 0.034,-0.208 0,-0.424 -0.096,-0.612 -0.068,-0.132 -1.698,-3.234 -6.218,-4.33 -0.316,-0.082 -0.64,0.002 -0.884,0.21 -1.426,1.218 -3.396,2.516 -4.246,2.65 -5.698,-2.786 -8.88,-8.132 -9,-9.146 -0.07,-0.57 1.236,-2.572 2.738,-4.2 0.19,-0.206 0.286,-0.486 0.26,-0.766 z"
       id="path3981"
       inkscape:connector-curvature="0" />
  </g>
</svg>
