<?xml version="1.0" encoding="utf-8"?>
<!-- Generator: Adobe Illustrator 19.2.1, SVG Export Plug-In . SVG Version: 6.00 Build 0)  -->
<svg version="1.1" id="Layer_3" xmlns="http://www.w3.org/2000/svg" xmlns:xlink="http://www.w3.org/1999/xlink" x="0px" y="0px"
	 viewBox="0 0 23 32" style="enable-background:new 0 0 23 32;" xml:space="preserve">
<g>
	<path d="M0.7,26.1c0.6,0.6,1.6,0.6,2.2,0l8.6-8.6l8.6,8.6c0.6,0.6,1.6,0.6,2.2,0s0.6-1.6,0-2.2l-8.6-8.6l8.6-8.6
		c0.6-0.6,0.6-1.6,0-2.2c-0.6-0.6-1.6-0.6-2.2,0l-8.6,8.6L2.9,4.5c-0.6-0.6-1.6-0.6-2.2,0s-0.6,1.6,0,2.2l8.6,8.6l-8.6,8.6
		C0.1,24.5,0.1,25.5,0.7,26.1z"/>
</g>
</svg>
