<?xml version="1.0" encoding="utf-8"?>
<!-- Generator: Adobe Illustrator 19.2.1, SVG Export Plug-In . SVG Version: 6.00 Build 0)  -->
<svg version="1.1" id="Layer_3" xmlns="http://www.w3.org/2000/svg" xmlns:xlink="http://www.w3.org/1999/xlink" x="0px" y="0px"
	 viewBox="0 0 23 32" style="enable-background:new 0 0 23 32;" xml:space="preserve">
<g>
	<path d="M11.5,5.2C5.6,5.2,0.9,9.9,0.9,15.7s4.7,10.6,10.6,10.6S22,21.6,22,15.7S17.3,5.2,11.5,5.2z M11.5,25
		c-5.1,0-9.2-4.1-9.2-9.2c0-5.1,4.1-9.2,9.2-9.2c5.1,0,9.2,4.1,9.2,9.2S16.6,25,11.5,25z M11.5,13.1c-0.7,0-1.3,0.6-1.3,1.3V21
		c0,0.7,0.6,1.3,1.3,1.3s1.3-0.6,1.3-1.3v-6.6C12.8,13.7,12.2,13.1,11.5,13.1z M10.1,10.5c0,0.7,0.6,1.3,1.3,1.3
		c0.7,0,1.3-0.6,1.3-1.3c0-0.7-0.6-1.3-1.3-1.3C10.7,9.1,10.1,9.7,10.1,10.5z"/>
</g>
</svg>
