<?xml version="1.0" encoding="utf-8"?>
<!-- Generator: Adobe Illustrator 19.2.1, SVG Export Plug-In . SVG Version: 6.00 Build 0)  -->
<svg version="1.1" id="Layer_2" xmlns="http://www.w3.org/2000/svg" xmlns:xlink="http://www.w3.org/1999/xlink" x="0px" y="0px"
	 viewBox="0 0 23 32" style="enable-background:new 0 0 23 32;" xml:space="preserve">
<g>
	<path d="M22.1,12.7c-0.1-3.6-2.7-6.9-6-6.9c-1.9,0-3.6,1.1-4.6,2.8c-1.1-1.6-2.8-2.7-4.6-2.7c-3.3,0-5.9,3.3-6,6.9l0,0v0.1
		c0,0,0,0,0,0.1c0,0.1,0,0.1,0,0.3c0.3,9.2,10.5,13,10.5,13s10.3-3.8,10.6-13.1c0-0.1,0-0.2,0-0.3C22.2,12.9,22.1,12.8,22.1,12.7
		C22.1,12.8,22.2,12.8,22.1,12.7L22.1,12.7z M20.8,13.1c-0.2,7.1-7.5,10.8-9.3,11.6c-1.8-0.8-8.9-4.4-9.2-11.6c0-0.1,0-0.1,0-0.2
		v-0.1c0.1-3,2.2-5.4,4.6-5.4c1.3,0,2.7,0.7,3.6,2.2c0.2,0.4,0.7,0.6,1,0.6c0.4,0,0.8-0.2,1-0.6c0.9-1.3,2.2-2.2,3.6-2.2
		c2.5,0,4.6,2.5,4.6,5.4v0.1C20.8,13,20.8,13,20.8,13.1z"/>
</g>
</svg>
