<?xml version="1.0" encoding="UTF-8" standalone="no"?>
<!-- Generator: IcoMoon.io -->

<svg
   xmlns:dc="http://purl.org/dc/elements/1.1/"
   xmlns:cc="http://creativecommons.org/ns#"
   xmlns:rdf="http://www.w3.org/1999/02/22-rdf-syntax-ns#"
   xmlns:svg="http://www.w3.org/2000/svg"
   xmlns="http://www.w3.org/2000/svg"
   xmlns:sodipodi="http://sodipodi.sourceforge.net/DTD/sodipodi-0.dtd"
   xmlns:inkscape="http://www.inkscape.org/namespaces/inkscape"
   width="23"
   height="32"
   viewBox="0 0 23 32"
   version="1.1"
   id="svg4157"
   sodipodi:docname="icon-mail.svg"
   style="fill:#000000"
   inkscape:version="0.92.2 5c3e80d, 2017-08-06">
  <metadata
     id="metadata4163">
    <rdf:RDF>
      <cc:Work
         rdf:about="">
        <dc:format>image/svg+xml</dc:format>
        <dc:type
           rdf:resource="http://purl.org/dc/dcmitype/StillImage" />
        <dc:title></dc:title>
      </cc:Work>
    </rdf:RDF>
  </metadata>
  <defs
     id="defs4161" />
  <sodipodi:namedview
     pagecolor="#ffffff"
     bordercolor="#666666"
     borderopacity="1"
     objecttolerance="10"
     gridtolerance="10"
     guidetolerance="10"
     inkscape:pageopacity="0"
     inkscape:pageshadow="2"
     inkscape:window-width="906"
     inkscape:window-height="593"
     id="namedview4159"
     showgrid="false"
     inkscape:zoom="10.429825"
     inkscape:cx="14.649713"
     inkscape:cy="15.920571"
     inkscape:window-x="0"
     inkscape:window-y="23"
     inkscape:window-maximized="0"
     inkscape:current-layer="svg4157" />
  <g
     id="g4155"
     transform="matrix(0.71875,0,0,0.71875,0,1.5)">
    <path
       d="M 30,8 H 2 C 0.896,8 0,8.896 0,10 v 20 c 0,1.104 0.896,2 2,2 h 28 c 1.104,0 2,-0.896 2,-2 V 10 C 32,8.896 31.104,8 30,8 Z M 11.36,22.054 16.004,25.21 20.62,22.032 28.586,30 H 3.414 Z M 2,28.586 V 15.69 l 7.676,5.218 z M 22.294,20.88 30,15.576 v 13.01 z M 30,10 v 3.236 L 29.958,13.176 15.996,22.79 2,13.274 V 10 Z"
       id="path4153"
       inkscape:connector-curvature="0" />
  </g>
</svg>
