<?xml version="1.0" encoding="utf-8"?>
<!-- Generator: Adobe Illustrator 19.2.1, SVG Export Plug-In . SVG Version: 6.00 Build 0)  -->
<svg version="1.1" xmlns="http://www.w3.org/2000/svg" xmlns:xlink="http://www.w3.org/1999/xlink" x="0px" y="0px"
	 viewBox="0 0 23 32" style="enable-background:new 0 0 23 32;" xml:space="preserve">
<g id="Layer_2">
	<g>
		<g>
			<path d="M8.6,20.4l7-4.3c0.1-0.1,0.2-0.2,0.2-0.3s-0.1-0.2-0.2-0.3l-7-4.3c-0.1-0.1-0.2-0.1-0.4,0C8.1,11.3,8,11.4,8,11.5v2H2
				c-0.2,0-0.4,0.2-0.4,0.4v3.9c0,0.2,0.2,0.4,0.4,0.4h6.1v2c0,0.1,0.1,0.2,0.2,0.3c0.1,0,0.1,0,0.2,0C8.5,20.5,8.5,20.4,8.6,20.4z"
				/>
		</g>
	</g>
</g>
<g id="Layer_4">
	<path d="M19.5,4.9h-8.6v2h8.6c0.3,0,0.5,0.1,0.7,0.3c0.2,0.2,0.3,0.4,0.3,0.7v15.8c0,0.3-0.1,0.5-0.3,0.7c-0.2,0.2-0.4,0.3-0.7,0.3
		h-8.6v2h8.6c1.7,0,3-1.3,3-3V7.9C22.5,6.3,21.2,4.9,19.5,4.9z"/>
</g>
</svg>
