<?xml version="1.0" encoding="utf-8"?>
<!-- Generator: Adobe Illustrator 19.2.1, SVG Export Plug-In . SVG Version: 6.00 Build 0)  -->
<svg version="1.1" xmlns="http://www.w3.org/2000/svg" xmlns:xlink="http://www.w3.org/1999/xlink" x="0px" y="0px"
	 viewBox="0 0 23 32" style="enable-background:new 0 0 23 32;" xml:space="preserve">
<g id="Layer_2">
	<g>
		<g>
			<path d="M15.4,20.4l7-4.3c0.1-0.1,0.2-0.2,0.2-0.3s-0.1-0.2-0.2-0.3l-7-4.3c-0.1-0.1-0.2-0.1-0.4,0c-0.1,0.1-0.2,0.2-0.2,0.3v2
				h-6c-0.2,0-0.4,0.2-0.4,0.4v3.9c0,0.2,0.2,0.4,0.4,0.4h6.1v2c0,0.1,0.1,0.2,0.2,0.3c0.1,0,0.1,0,0.2,0
				C15.3,20.5,15.3,20.4,15.4,20.4z"/>
		</g>
	</g>
</g>
<g id="Layer_4">
	<path d="M3.8,26.8h8.6v-2H3.8c-0.3,0-0.5-0.1-0.7-0.3c-0.2-0.2-0.3-0.4-0.3-0.7V7.9c0-0.3,0.1-0.5,0.3-0.7C3.3,7,3.5,6.9,3.8,6.9
		h8.6v-2H3.8c-1.7,0-3,1.3-3,3v15.8C0.8,25.4,2.1,26.7,3.8,26.8z"/>
</g>
</svg>
