<?xml version="1.0" encoding="UTF-8" standalone="no"?>
<!-- Generator: IcoMoon.io -->

<svg
   xmlns:dc="http://purl.org/dc/elements/1.1/"
   xmlns:cc="http://creativecommons.org/ns#"
   xmlns:rdf="http://www.w3.org/1999/02/22-rdf-syntax-ns#"
   xmlns:svg="http://www.w3.org/2000/svg"
   xmlns="http://www.w3.org/2000/svg"
   xmlns:sodipodi="http://sodipodi.sourceforge.net/DTD/sodipodi-0.dtd"
   xmlns:inkscape="http://www.inkscape.org/namespaces/inkscape"
   version="1.1"
   id="Layer_1"
   x="0px"
   y="0px"
   width="23"
   height="32"
   viewBox="0 0 23 32"
   enable-background="new 0 0 16 16"
   xml:space="preserve"
   sodipodi:docname="icon-globe.svg"
   style="fill:#000000"
   inkscape:version="0.92.2 5c3e80d, 2017-08-06"><metadata
     id="metadata3929"><rdf:RDF><cc:Work
         rdf:about=""><dc:format>image/svg+xml</dc:format><dc:type
           rdf:resource="http://purl.org/dc/dcmitype/StillImage" /><dc:title></dc:title></cc:Work></rdf:RDF></metadata><defs
     id="defs3927" /><sodipodi:namedview
     pagecolor="#ffffff"
     bordercolor="#666666"
     borderopacity="1"
     objecttolerance="10"
     gridtolerance="10"
     guidetolerance="10"
     inkscape:pageopacity="0"
     inkscape:pageshadow="2"
     inkscape:window-width="986"
     inkscape:window-height="691"
     id="namedview3925"
     showgrid="false"
     inkscape:zoom="7.375"
     inkscape:cx="16"
     inkscape:cy="16"
     inkscape:window-x="0"
     inkscape:window-y="23"
     inkscape:window-maximized="0"
     inkscape:current-layer="Layer_1" /><g
     id="g3922"
     transform="matrix(0.76666667,0,0,0.76666667,-1.5333333,2.9666666)"><path
       d="M 17,2 C 8.716,2 2,8.716 2,17 2,25.284 8.716,32 17,32 25.284,32 32,25.284 32,17 32,8.716 25.284,2 17,2 Z m 10.938,8 h -2.98 C 24.378,8.176 23.582,6.578 22.622,5.296 24.798,6.346 26.64,7.98 27.938,10 Z M 18,10 V 4.164 c 1.89,0.558 3.732,2.654 4.866,5.836 z m 5.448,2 c 0.282,1.224 0.464,2.564 0.522,4 H 18 V 12 Z M 16,4.164 V 10 H 11.134 C 12.268,6.818 14.11,4.722 16,4.164 Z M 16,12 v 4 h -5.97 c 0.058,-1.436 0.24,-2.776 0.522,-4 z M 8.03,16 H 4.05 c 0.108,-1.406 0.43,-2.754 0.952,-4 h 3.52 C 8.254,13.266 8.086,14.604 8.03,16 Z m 0,2 c 0.056,1.396 0.224,2.734 0.492,4 H 5.002 C 4.48,20.754 4.158,19.406 4.05,18 Z m 2,0 H 16 v 4 H 10.552 C 10.27,20.776 10.088,19.436 10.03,18 Z M 16,24 v 5.836 C 14.11,29.278 12.268,27.182 11.134,24 Z m 2,5.836 V 24 h 4.866 C 21.732,27.182 19.89,29.278 18,29.836 Z M 18,22 v -4 h 5.97 c -0.058,1.436 -0.24,2.776 -0.522,4 z m 7.97,-4 h 3.98 c -0.108,1.406 -0.43,2.754 -0.952,4 h -3.52 c 0.268,-1.266 0.436,-2.604 0.492,-4 z m 0,-2 c -0.056,-1.396 -0.224,-2.734 -0.492,-4 h 3.52 c 0.522,1.246 0.844,2.594 0.952,4 z M 11.378,5.296 C 10.42,6.578 9.622,8.176 9.042,10 H 6.062 C 7.36,7.98 9.202,6.346 11.378,5.296 Z M 6.062,24 h 2.98 c 0.58,1.824 1.376,3.422 2.336,4.704 C 9.202,27.654 7.36,26.02 6.062,24 Z m 16.56,4.704 C 23.58,27.422 24.378,25.824 24.958,24 h 2.98 c -1.298,2.02 -3.14,3.654 -5.316,4.704 z"
       id="path3920"
       inkscape:connector-curvature="0" /></g></svg>