<?xml version="1.0" encoding="utf-8"?>
<!-- Generator: Adobe Illustrator 19.2.1, SVG Export Plug-In . SVG Version: 6.00 Build 0)  -->
<svg version="1.1" id="Layer_3" xmlns="http://www.w3.org/2000/svg" xmlns:xlink="http://www.w3.org/1999/xlink" x="0px" y="0px"
	 viewBox="0 0 23 32" style="enable-background:new 0 0 23 32;" xml:space="preserve">
<g>
	<path d="M22,4.1h-2.8c-0.2,0-0.3,0.1-0.5,0.2l-9.7,8.5c-0.5-0.1-1.3-0.2-1.8-0.2c-3.9,0-7,3.1-7,7s3.1,7,7,7s7-3.1,7-7
		c0-1.1-0.2-1.9-0.5-2.6l2.4-0.8c0.3-0.1,0.5-0.4,0.5-0.7l-0.1-2.7l2.7-0.2c0.4,0,0.6-0.3,0.7-0.7l0.1-3.2l2.1-0.5
		c0.3-0.1,0.5-0.4,0.5-0.7V4.8C22.7,4.4,22.4,4.1,22,4.1z M5.2,19.5c0.8,0,1.6,0.5,1.9,1.2c0.1,0.3,0.2,0.6,0.2,0.9
		c0,1.2-0.9,2.1-2.1,2.1s-2.1-0.9-2.1-2.1C3.1,20.4,4,19.5,5.2,19.5z"/>
</g>
</svg>
