<?xml version="1.0" encoding="UTF-8" standalone="no"?>
<!-- Generator: IcoMoon.io -->

<svg
   xmlns:dc="http://purl.org/dc/elements/1.1/"
   xmlns:cc="http://creativecommons.org/ns#"
   xmlns:rdf="http://www.w3.org/1999/02/22-rdf-syntax-ns#"
   xmlns:svg="http://www.w3.org/2000/svg"
   xmlns="http://www.w3.org/2000/svg"
   xmlns:sodipodi="http://sodipodi.sourceforge.net/DTD/sodipodi-0.dtd"
   xmlns:inkscape="http://www.inkscape.org/namespaces/inkscape"
   version="1.1"
   id="Layer_1"
   x="0px"
   y="0px"
   width="23"
   height="32"
   viewBox="0 0 23 32"
   enable-background="new 0 0 16 16"
   xml:space="preserve"
   sodipodi:docname="icon-shield.svg"
   style="fill:#000000"
   inkscape:version="0.92.2 5c3e80d, 2017-08-06"><metadata
     id="metadata4043"><rdf:RDF><cc:Work
         rdf:about=""><dc:format>image/svg+xml</dc:format><dc:type
           rdf:resource="http://purl.org/dc/dcmitype/StillImage" /><dc:title></dc:title></cc:Work></rdf:RDF></metadata><defs
     id="defs4041" /><sodipodi:namedview
     pagecolor="#ffffff"
     bordercolor="#666666"
     borderopacity="1"
     objecttolerance="10"
     gridtolerance="10"
     guidetolerance="10"
     inkscape:pageopacity="0"
     inkscape:pageshadow="2"
     inkscape:window-width="945"
     inkscape:window-height="613"
     id="namedview4039"
     showgrid="false"
     inkscape:zoom="7.375"
     inkscape:cx="19.457586"
     inkscape:cy="19.9143"
     inkscape:window-x="0"
     inkscape:window-y="23"
     inkscape:window-maximized="0"
     inkscape:current-layer="Layer_1" /><g
     id="g4036"
     transform="matrix(0.71875,0,0,0.71875,0.11757039,4.5)"><path
       d="M 15.45,31.922 C 15.63,31.974 15.816,32 16,32 16.184,32 16.37,31.974 16.55,31.922 28.928,28.386 30.75,15.874 29.986,9.75 29.86,8.752 29.008,8 28,8 27.714,7.978 26,7.682 26,4 26,3.47 25.79,2.96 25.414,2.586 24.982,2.154 22.5,0 16,0 9.5,0 7.018,2.154 6.586,2.586 6.21,2.96 6,3.47 6,4 6,7.682 4.286,7.978 3.942,8.002 2.934,8.002 2.14,8.752 2.014,9.752 1.25,15.874 3.074,28.386 15.45,31.922 Z M 4,10 c 0,0 4,0 4,-6 0,0 2,-2 8,-2 V 16 H 27.778 C 26.99,20.982 24.346,27.616 16,30 V 16 H 4.222 C 3.69,12.624 4,10 4,10 Z"
       id="path4034"
       inkscape:connector-curvature="0" /></g></svg>